# xmcd
#
# Track frame offsets:
#	150
#	17371
#	38360
#	57728
#	74474
#	92068
#	111520
#	122995
#	136247
#	156930
#	180409
#	197134
#	219354
#	238325
#	251697
#
# Disc length: 3574 seconds
# Revision: 0
# Processed by: cddbd v1.5.2PL0 Copyright (c) Steve Scherf et al.
# Submitted via: dBpowerAMP V12.0
#
DISCID=d80df40f
DTITLE=Various Artist - The Blues Magazine 7: Summer Time Blues
DYEAR=2013
DGENRE=Blues
TTITLE0=Z-Star - 16 Tons of Love
TTITLE1=JJ Grey and Mofro - Somebody Else
TTITLE2=Mike Zito and The Wheel - Rainbow Bridge
TTITLE3=Stephen Dale Petit - Get You Off
TTITLE4=Marcus Bonfanti - Alley Cat
TTITLE5=Walter Trout and His Band - Low Down and Dirty
TTITLE6=The Gravel Tones - Catch Me on the Fly
TTITLE7=Poplar Jake - 32-400
TTITLE8=Spin Doctors - Some Other Man Instead
TTITLE9=Danny Bryant - Devil's Got A Hold On Me
TTITLE10=Long John Laundry - Oh Yer
TTITLE11=Fireroad - I Got Sound
TTITLE12=Austin Young and No Difference - Thunderhead
TTITLE13=Steve Summers Band - Lookin' Back Movin' On
TTITLE14=Pearl Handled Revolver - Josey
EXTD=
EXTT0=
EXTT1=
EXTT2=
EXTT3=
EXTT4=
EXTT5=
EXTT6=
EXTT7=
EXTT8=
EXTT9=
EXTT10=
EXTT11=
EXTT12=
EXTT13=
EXTT14=
PLAYORDER=
